<?xml version="1.0" encoding="UTF-8" standalone="yes"?>
<svg xmlns="http://www.w3.org/2000/svg" viewBox="163 2.5 406 77.5" width="100%" height="100%">
  <style type="text/css"> .st0{fill:#FFFFFF;} </style>
  <path class="st0" d="M435.9 63.7c-1.7-1.1-2.6-2.7-2.6-4.7 0-1 0.3-1.9 0.9-2.7 0.6-0.7 1.4-1.4 2.3-1.8 -1.4-0.9-2.1-2.3-2.1-4.1 0-1.1 0.2-2.1 0.7-2.9 0.5-0.8 1.2-1.5 2-2 -2-1.3-3-3.4-3-6.4 0-2.6 0.8-4.6 2.4-6 1.6-1.4 4-2 7.3-2 1.5 0 2.8 0.2 4.1 0.6h7.5v3.4l-2.4 1c0.5 1 0.7 2.2 0.7 3.5 0 2.6-0.8 4.5-2.3 5.7s-4 1.8-7.4 1.8c-1 0-1.8 0-2.6-0.1 -0.2 0.3-0.4 0.5-0.5 0.9 -0.1 0.3-0.2 0.6-0.2 0.9 0 0.8 0.5 1.2 1.6 1.2h4.6c2.6 0 4.7 0.6 6.3 1.7 1.6 1.1 2.3 2.9 2.3 5.3 0 2.8-1 4.9-2.9 6.4 -1.9 1.4-4.9 2.1-9 2.1C440.2 65.4 437.7 64.8 435.9 63.7zM439.4 58c0 1 0.3 1.8 0.9 2.2 0.6 0.5 1.8 0.7 3.6 0.7 1.5 0 2.7-0.3 3.6-0.8 0.8-0.5 1.3-1.3 1.3-2.2 0-1-0.3-1.6-0.9-1.9 -0.6-0.3-1.7-0.5-3.4-0.5H440C439.5 56.2 439.4 57.1 439.4 58zM446.6 42c0.5-0.5 0.7-1.4 0.7-2.6 0-1.3-0.2-2.2-0.7-2.7 -0.5-0.6-1.3-0.8-2.6-0.8 -1.2 0-2 0.3-2.5 0.9 -0.5 0.6-0.7 1.5-0.7 2.7s0.2 2.1 0.7 2.6c0.5 0.6 1.3 0.8 2.5 0.8C445.3 42.8 446.2 42.5 446.6 42z"/>
  <path class="st0" d="M459.8 31.7h5.6l0.6 2.8c1.5-2.1 3.5-3.2 6-3.2 0.6 0 1.2 0.1 1.9 0.2l-1.2 6.7c-0.7-0.4-1.6-0.7-2.5-0.7 -0.8 0-1.4 0.1-1.9 0.3s-1.1 0.5-1.6 0.9V56h-6.8V31.7H459.8z"/>
  <path class="st0" d="M479.2 53.6c-1.9-2-2.9-5.3-2.9-9.9 0-4.4 0.9-7.7 2.6-9.7 1.8-2 4.3-3 7.7-3 3.7 0 6.4 1 8 3.1 1.6 2.1 2.4 5.3 2.4 9.9v2h-13.3c0.1 2.2 0.5 3.6 1.2 4.3 0.6 0.7 1.7 1.1 3.3 1.1 1.1 0 2.1-0.2 2.9-0.5 0.8-0.4 1.7-0.9 2.6-1.5l3 4.5c-0.9 0.9-2.1 1.6-3.5 2.1s-3 0.8-4.7 0.8C484.1 56.7 481.1 55.7 479.2 53.6zM484.5 37.1c-0.5 0.7-0.8 2.2-0.8 4.4h6.4c-0.1-2.1-0.3-3.5-0.7-4.3 -0.4-0.8-1.2-1.2-2.5-1.2C485.8 35.9 485 36.3 484.5 37.1z"/>
  <path class="st0" d="M503.5 53.6c-1.9-2-2.9-5.3-2.9-9.9 0-4.4 0.9-7.7 2.6-9.7 1.8-2 4.3-3 7.7-3 3.7 0 6.4 1 8 3.1 1.6 2.1 2.4 5.3 2.4 9.9v2H508c0.1 2.2 0.5 3.6 1.2 4.3 0.6 0.7 1.7 1.1 3.3 1.1 1.1 0 2.1-0.2 2.9-0.5 0.8-0.4 1.7-0.9 2.6-1.5l3 4.5c-0.9 0.9-2.1 1.6-3.5 2.1s-3 0.8-4.7 0.8C508.4 56.7 505.4 55.7 503.5 53.6zM508.8 37.1c-0.5 0.7-0.8 2.2-0.8 4.4h6.4c-0.1-2.1-0.3-3.5-0.7-4.3 -0.4-0.8-1.2-1.2-2.5-1.2C510.1 35.9 509.3 36.3 508.8 37.1z"/>
  <path class="st0" d="M527.5 53.5c-1.7-2.1-2.6-5.4-2.6-9.8s0.9-7.6 2.6-9.6c1.7-2 4.3-3 7.7-3 1.6 0 3 0.2 4.3 0.7 1.2 0.5 2.4 1.2 3.4 2.1l-3.3 4.4c-0.6-0.6-1.2-1.1-1.7-1.4 -0.6-0.3-1.3-0.5-2-0.5 -1.3 0-2.2 0.5-2.7 1.4s-0.8 2.9-0.8 5.8c0 3 0.3 5 0.8 6.1 0.5 1 1.5 1.5 2.9 1.5 0.9 0 1.6-0.1 2.2-0.4 0.6-0.3 1.2-0.7 2-1.4l2.9 4.5c-0.9 0.9-2 1.6-3.2 2 -1.2 0.5-2.6 0.7-4.2 0.7C531.9 56.7 529.2 55.6 527.5 53.5z"/>
  <path class="st0" d="M548.4 53.6c-1.9-2-2.9-5.3-2.9-9.9 0-4.4 0.9-7.7 2.6-9.7 1.8-2 4.3-3 7.7-3 3.7 0 6.4 1 8 3.1 1.6 2.1 2.4 5.3 2.4 9.9v2h-13.3c0.1 2.2 0.5 3.6 1.2 4.3 0.6 0.7 1.7 1.1 3.3 1.1 1.1 0 2-0.2 2.9-0.5 0.8-0.4 1.7-0.9 2.6-1.5l3 4.5c-0.9 0.9-2.1 1.6-3.5 2.1s-3 0.8-4.7 0.8C553.4 56.7 550.3 55.7 548.4 53.6zM553.8 37.1c-0.5 0.7-0.7 2.2-0.8 4.4h6.4c-0.1-2.1-0.3-3.5-0.7-4.3 -0.4-0.8-1.2-1.2-2.5-1.2C555 35.9 554.3 36.3 553.8 37.1z"/>
  <path class="st0" d="M399.6 35.5l-3.2-0.4v-1.8h6.1v22.8h-2.9L399.6 35.5 399.6 35.5zM398.6 25.8c0-1.3 0.9-2.2 2.1-2.2 1.3 0 2.2 1 2.2 2.2S402 28 400.7 28C399.5 28 398.6 27.1 398.6 25.8z"/>
  <path class="st0" d="M411.1 33.3h2l0.7 3.3c2.2-2.2 4.6-3.8 7.4-3.8 3.2 0 5.6 1.9 5.6 5.9v17.4H424V39.4c0-3.1-1.1-4.1-3.4-4.1 -2.3 0-4.5 1.5-6.6 3.3V56h-2.9V33.3z"/>
  <path class="st0" d="M255.5 22.9h17.8V29h-10.5v6.9h8.2v5.9h-8.2v14.3h-7.3V22.9z"/>
  <path class="st0" d="M278.4 53.6c-1.9-2-2.9-5.3-2.9-9.9 0-4.4 0.9-7.7 2.7-9.7 1.8-2 4.4-3 7.8-3 3.7 0 6.4 1 8 3.1 1.6 2.1 2.4 5.3 2.4 9.9v2H283c0.1 2.2 0.5 3.6 1.2 4.3 0.6 0.7 1.8 1.1 3.3 1.1 1.1 0 2.1-0.2 2.9-0.5 0.8-0.4 1.7-0.9 2.6-1.5l3 4.5c-0.9 0.9-2.1 1.6-3.6 2.1 -1.4 0.5-3 0.8-4.7 0.8C283.4 56.7 280.3 55.7 278.4 53.6zM283.8 37.1c-0.5 0.7-0.8 2.2-0.9 4.4h6.4c-0.1-2.1-0.3-3.5-0.7-4.3s-1.2-1.2-2.5-1.2C285 35.9 284.3 36.3 283.8 37.1z"/>
  <path class="st0" d="M301 31.7h5.6l0.6 2.8c1.6-2.1 3.6-3.2 6-3.2 0.6 0 1.2 0.1 1.9 0.2l-1.2 6.7c-0.7-0.4-1.6-0.7-2.5-0.7 -0.8 0-1.4 0.1-1.9 0.3s-1.1 0.5-1.7 0.9V56H301V31.7z"/>
  <path class="st0" d="M318.7 31.7h5.6l0.7 2.8c1.6-2.1 3.6-3.2 6-3.2 0.6 0 1.2 0.1 1.9 0.2l-1.2 6.7c-0.7-0.4-1.6-0.7-2.5-0.7 -0.8 0-1.4 0.1-1.9 0.3s-1.1 0.5-1.7 0.9V56h-6.9V31.7L318.7 31.7z"/>
  <path class="st0" d="M338.5 36.8l-2.8-0.7v-4.4h9.7v24.4h-6.9V36.8zM339 27.7c-0.8-0.8-1.2-1.7-1.2-2.8 0-1.1 0.4-2.1 1.2-2.9s1.8-1.2 2.9-1.2c1.2 0 2.2 0.4 3 1.2 0.8 0.8 1.2 1.7 1.2 2.9 0 1.1-0.4 2.1-1.2 2.9S343.1 29 342 29C340.8 28.9 339.8 28.5 339 27.7z"/>
  <path class="st0" d="M353.2 53.6c-1.9-2-2.9-5.3-2.9-9.9 0-4.4 0.9-7.7 2.7-9.7s4.4-3 7.8-3c3.7 0 6.4 1 8 3.1 1.6 2.1 2.4 5.3 2.4 9.9v2h-13.4c0.1 2.2 0.5 3.6 1.2 4.3 0.6 0.7 1.8 1.1 3.3 1.1 1.1 0 2.1-0.2 2.9-0.5 0.8-0.4 1.7-0.9 2.6-1.5l3 4.5c-0.9 0.9-2.1 1.6-3.6 2.1 -1.4 0.5-3 0.8-4.7 0.8C358.1 56.7 355.1 55.7 353.2 53.6zM358.6 37.1c-0.5 0.7-0.8 2.2-0.9 4.4h6.4c-0.1-2.1-0.3-3.5-0.7-4.3 -0.4-0.8-1.2-1.2-2.5-1.2C359.8 35.9 359 36.3 358.6 37.1z"/>
  <path class="st0" d="M377.8 56c-1.6-0.4-2.9-1-4-1.6l2.2-5.1c0.9 0.5 1.8 1 2.8 1.3s2 0.5 3 0.5c2.2 0 3.4-0.7 3.4-2.1 0-0.8-0.3-1.4-0.8-1.7 -0.6-0.3-1.7-0.8-3.4-1.3 -2-0.6-3.5-1.4-4.5-2.6 -1-1.1-1.5-2.8-1.5-5 0-2.4 0.7-4.2 2.2-5.5s3.6-1.9 6.3-1.9c1.6 0 3 0.1 4.2 0.4 1.1 0.3 2.3 0.6 3.5 1.1l-1.7 5.1c-1.6-0.8-3.4-1.2-5.2-1.2 -0.8 0-1.4 0.2-1.8 0.5 -0.4 0.3-0.7 0.8-0.7 1.4 0 0.7 0.2 1.2 0.6 1.5 0.4 0.3 1.4 0.6 2.9 1 1.1 0.3 2 0.6 2.8 1s1.5 0.8 2.1 1.4c0.6 0.6 1.1 1.3 1.4 2.1 0.3 0.9 0.5 1.9 0.5 3.2 0 2.6-0.7 4.6-2.2 6s-3.8 2.1-6.9 2.1C381.1 56.7 379.4 56.5 377.8 56z"/>
  <path class="st0" d="M228.7 20.3L202.6 5.2c-2.1-1.2-4.8-1.2-6.8 0l-26.1 15.1c-2.1 1.2-3.4 3.5-3.4 5.9v30.1c0 1.2 0.3 2.4 0.9 3.4 0.6 1 1.5 1.9 2.5 2.5l26.1 15.1c1 0.6 2.2 0.9 3.4 0.9s2.4-0.3 3.4-0.9l26.1-15.1c1-0.6 1.9-1.4 2.5-2.5 0.6-1 0.9-2.2 0.9-3.5v-30C232.1 23.8 230.8 21.5 228.7 20.3zM200.8 74.2c-1 0.6-2.3 0.6-3.2 0l-11.7-6.7c4.3-0.5 8.8-0.8 13.3-0.8s9 0.3 13.3 0.8L200.8 74.2zM217.5 64.6c-5.9-1-12-1.5-18.3-1.5s-12.4 0.5-18.3 1.5l-8.4-4.8c8.4-2.1 17.4-3.2 26.7-3.2 9.3 0 18.3 1.1 26.7 3.2L217.5 64.6zM228.5 56.3c0 0.1 0 0.2 0 0.4 -9.2-2.5-19.1-3.8-29.3-3.8s-20.1 1.3-29.3 3.8c0-0.1 0-0.2 0-0.4V50c9.3-2.4 19.1-3.6 29.3-3.6s20.1 1.2 29.3 3.6V56.3zM201 33.1v-4.8l13.4 5.6c-0.6 0.9-1.1 1.9-1.6 2.9L201 33.1zM211.2 40.1c-0.4 1-0.8 2.1-1.1 3.1 -3.6-0.3-7.3-0.5-11-0.5 -3.7 0-7.4 0.2-11 0.5 -0.3-1-0.7-2.1-1.1-3.1l12.1-3.8L211.2 40.1zM207.3 27.1l-7.4-3.1 0 0 0 0c0 0 0 0-0.1 0 -0.1 0-0.2-0.1-0.3-0.1 -0.2 0-0.5 0-0.7 0 -0.1 0-0.2 0-0.3 0.1 0 0 0 0-0.1 0l0 0 0 0 -7.4 3.1 -1.6-5.1h19.4L207.3 27.1zM197.4 28.3v4.8l-11.7 3.7c-0.5-1-1.1-2-1.6-2.9L197.4 28.3zM228.5 46.3c-4.8-1.2-9.7-2.1-14.7-2.7 1.1-3.5 2.8-6.8 4.7-9.4 0.3-0.4 0.4-1 0.3-1.6 -0.1-0.5-0.5-1-1-1.2l-7.2-3 2.4-7.7c0.2-0.5 0.1-1.1-0.3-1.6 -0.3-0.5-0.9-0.7-1.4-0.7H201v-1.2c0-1-0.8-1.8-1.8-1.8s-1.8 0.8-1.8 1.8v1.2h-10.3c-0.6 0-1.1 0.3-1.4 0.7 -0.3 0.5-0.4 1.1-0.3 1.6l2.4 7.7 -7.2 3c-0.5 0.2-0.9 0.7-1 1.2 -0.1 0.5 0 1.1 0.3 1.6 1.9 2.6 3.6 6 4.7 9.4 -5 0.6-9.9 1.5-14.7 2.7V26.2c0-1.2 0.6-2.2 1.6-2.8l26.1-15c0.5-0.3 1.1-0.4 1.6-0.4 0.6 0 1.1 0.1 1.6 0.4l26.1 15.1c1 0.6 1.6 1.7 1.6 2.8C228.5 26.3 228.5 46.3 228.5 46.3z"/>
</svg>